#!OML:ASF H:\Dans Jumps\Project 1\Capture day 1\Session 1\subject.ASF
:FULLY-SPECIFIED
:DEGREES
441
root 0.942203 17.287 1.91109 5.87452 -3.35071 -1.8629
lowerback 3.36389 0.353818 -0.63547
upperback 4.58673 0.425888 1.63865
thorax 2.81303 0.162293 2.03805
lowerneck -12.4991 -0.224609 -1.36308
upperneck 30.9938 -0.0770169 0.259514
head 12.2887 -0.166892 0.323517
rclavicle -2.03754e-015 1.98785e-016
rhumerus -33.1371 -34.0102 -63.5301
rradius 16.7092
rwrist 55.6314
rhand -18.7961 -26.1001
rfingers 7.12502
rthumb 7.50196 -55.9471
lclavicle -2.03754e-015 1.98785e-016
lhumerus -25.8513 9.68987 83.7346
lradius 11.741
lwrist -8.09805
lhand -25.1535 -5.49505
lfingers 7.12502
lthumb 1.3633 24.4803
rfemur -24.1902 -1.34372 20.2783
rtibia 35.2944
rfoot -15.6236 0.116999
rtoes 11.4563
lfemur -23.7329 8.07303 -18.9113
ltibia 33.9787
lfoot -12.8039 5.55821
ltoes -5.44876
442
root 0.937594 17.297 1.92796 6.02061 -3.26545 -1.91932
lowerback 3.34249 0.349524 -0.592648
upperback 4.58843 0.420218 1.6627
thorax 2.82713 0.160261 2.03902
lowerneck -12.4937 -0.238462 -1.35013
upperneck 30.9479 -0.103394 0.269846
head 12.2691 -0.17536 0.32144
rclavicle -4.07509e-015 -1.68967e-014
rhumerus -33.7875 -34.1525 -63.0694
rradius 16.8492
rwrist 55.2227
rhand -18.7962 -26.1815
rfingers 7.12502
rthumb 7.50186 -56.0285
lclavicle -4.07509e-015 -1.68967e-014
lhumerus -25.7876 9.31864 83.9775
lradius 12.0476
lwrist -7.36732
lhand -25.3905 -5.64535
lfingers 7.12502
lthumb 1.13442 24.3314
rfemur -24.1514 -1.40974 20.3592
rtibia 35.0606
rfoot -15.5723 0.120769
rtoes 11.5478
lfemur -23.7446 7.93565 -18.8385
ltibia 33.8064
lfoot -12.7403 5.60637
ltoes -5.43225
443
root 0.93275 17.3075 1.94492 6.15664 -3.19484 -1.96265
lowerback 3.32067 0.350491 -0.559728
upperback 4.58637 0.421623 1.67819
thorax 2.83728 0.161668 2.03664
lowerneck -12.4793 -0.25292 -1.34465
upperneck 30.9046 -0.132584 0.292154
head 12.2488 -0.184458 0.324812
rclavicle -4.42296e-015 -1.70955e-014
rhumerus -34.3869 -34.1845 -62.7112
rradius 16.9917
rwrist 54.6816
rhand -18.803 -26.2665
rfingers 7.12502
rthumb 7.4953 -56.1137
lclavicle -4.42296e-015 -1.70955e-014
lhumerus -25.7285 8.94157 84.2066
lradius 12.3686
lwrist -6.50023
lhand -25.6057 -5.75061
lfingers 7.12502
lthumb 0.926526 24.2271
rfemur -24.0995 -1.47085 20.4266
rtibia 34.8187
rfoot -15.5168 0.134325
rtoes 11.6328
lfemur -23.7319 7.8201 -18.7782
ltibia 33.6121
lfoot -12.6753 5.63957
ltoes -5.4066
444
root 0.927626 17.3184 1.96187 6.28168 -3.13822 -1.99401
lowerback 3.3019 0.355194 -0.53679
upperback 4.5828 0.428038 1.6864
thorax 2.84394 0.165433 2.03229
lowerneck -12.4701 -0.267915 -1.33919
upperneck 30.8676 -0.16222 0.313807
head 12.2321 -0.193893 0.327886
rclavicle 7.45443e-016 -1.43125e-014
rhumerus -34.9187 -34.1218 -62.4574
rradius 17.1252
rwrist 54.0403
rhand -18.8086 -26.365
rfingers 7.12502
rthumb 7.48992 -56.2124
lclavicle 7.45443e-016 -1.43125e-014
lhumerus -25.6597 8.54719 84.4279
lradius 12.6973
lwrist -5.48441
lhand -25.7676 -5.76117
lfingers 7.12502
lthumb 0.770196 24.2172
rfemur -24.0338 -1.52191 20.4809
rtibia 34.5693
rfoot -15.4574 0.154997
rtoes 11.7237
lfemur -23.6954 7.72645 -18.7291
ltibia 33.3982
lfoot -12.6081 5.65942
ltoes -5.37416
445
root 0.922364 17.3298 1.97916 6.39529 -3.09286 -2.01813
lowerback 3.28172 0.36394 -0.51358
upperback 4.57916 0.440006 1.6858
thorax 2.85114 0.172137 2.01865
lowerneck -12.4688 -0.282086 -1.33638
upperneck 30.8416 -0.192547 0.344203
head 12.2216 -0.202891 0.334649
rclavicle -4.57205e-015 8.54774e-015
rhumerus -35.3903 -34.0027 -62.2909
rradius 17.2414
rwrist 53.3573
rhand -18.805 -26.4614
rfingers 7.12502
rthumb 7.4934 -56.3087
lclavicle -4.57205e-015 8.54774e-015
lhumerus -25.5792 8.10909 84.6453
lradius 13.0308
lwrist -4.32751
lhand -25.8987 -5.73194
lfingers 7.12502
lthumb 0.643553 24.2468
rfemur -23.9507 -1.56429 20.5266
rtibia 34.3128
rfoot -15.3984 0.178423
rtoes 11.8163
lfemur -23.6343 7.65269 -18.6867
ltibia 33.1687
lfoot -12.543 5.667
ltoes -5.32399
446
root 0.916846 17.3413 1.99655 6.50038 -3.05772 -2.03262
lowerback 3.2615 0.375656 -0.496322
upperback 4.57232 0.456039 1.67793
thorax 2.8549 0.180861 2.00082
lowerneck -12.4661 -0.294216 -1.33306
upperneck 30.8211 -0.220329 0.375494
head 12.213 -0.210624 0.342021
rclavicle 1.49089e-015 8.15017e-015
rhumerus -35.8015 -33.8425 -62.1988
rradius 17.3323
rwrist 52.6699
rhand -18.7916 -26.5593
rfingers 7.12502
rthumb 7.50626 -56.4061
lclavicle 1.49089e-015 8.15017e-015
lhumerus -25.4963 7.63141 84.8594
lradius 13.3718
lwrist -3.07646
lhand -26.0063 -5.67318
lfingers 7.12502
lthumb 0.539632 24.3059
rfemur -23.8566 -1.59215 20.5616
rtibia 34.0517
rfoot -15.3388 0.196136
rtoes 11.8967
lfemur -23.5568 7.59497 -18.6535
ltibia 32.9285
lfoot -12.4783 5.66654
ltoes -5.26908
447
root 0.911248 17.3527 2.01394 6.59949 -3.02433 -2.04363
lowerback 3.24125 0.386214 -0.476598
upperback 4.56361 0.470669 1.6655
thorax 2.85686 0.189065 1.9769
lowerneck -12.4606 -0.30353 -1.32903
upperneck 30.797 -0.243697 0.405028
head 12.2023 -0.216547 0.34921
rclavicle -6.11263e-015 -9.74045e-015
rhumerus -36.151 -33.654 -62.1723
rradius 17.3939
rwrist 52.0346
rhand -18.7818 -26.64
rfingers 7.12502
rthumb 7.51575 -56.4865
lclavicle -6.11263e-015 -9.74045e-015
lhumerus -25.4083 7.13094 85.0657
lradius 13.7143
lwrist -1.79538
lhand -26.0959 -5.6168
lfingers 7.12502
lthumb 0.453149 24.3625
rfemur -23.7543 -1.61271 20.5921
rtibia 33.788
rfoot -15.2793 0.207858
rtoes 11.9794
lfemur -23.4698 7.54656 -18.6243
ltibia 32.6828
lfoot -12.4125 5.66122
ltoes -5.22713
448
root 0.905587 17.364 2.0313 6.69468 -2.98967 -2.05151
lowerback 3.21565 0.395373 -0.453994
upperback 4.55376 0.483538 1.6492
thorax 2.86075 0.196541 1.94744
lowerneck -12.4543 -0.311974 -1.32274
upperneck 30.7707 -0.264636 0.429049
head 12.1905 -0.221833 0.354249
rclavicle 6.21202e-015 5.96354e-016
rhumerus -36.4399 -33.4354 -62.2121
rradius 17.4343
rwrist 51.4615
rhand -18.7647 -26.7101
rfingers 7.12502
rthumb 7.53226 -56.556
lclavicle 6.21202e-015 5.96354e-016
lhumerus -25.3204 6.62265 85.2589
lradius 14.0512
lwrist -0.569098
lhand -26.1925 -5.6078
lfingers 7.12502
lthumb 0.35986 24.3716
rfemur -23.6475 -1.6285 20.6191
rtibia 33.5244
rfoot -15.2205 0.211289
rtoes 12.0605
lfemur -23.3789 7.50224 -18.5986
ltibia 32.4364
lfoot -12.3484 5.65214
ltoes -5.18459
449
root 0.899819 17.375 2.04854 6.78869 -2.94858 -2.06077
lowerback 3.18597 0.401402 -0.426542
upperback 4.53992 0.492332 1.63238
thorax 2.86299 0.202175 1.91476
lowerneck -12.4402 -0.320144 -1.3167
upperneck 30.7392 -0.283679 0.44822
head 12.175 -0.226922 0.357754
rclavicle 1.88845e-014 8.94531e-015
rhumerus -36.6776 -33.1984 -62.301
rradius 17.451
rwrist 51.0045
rhand -18.7501 -26.7454
rfingers 7.12502
rthumb 7.54639 -56.5908
lclavicle 1.88845e-014 8.94531e-015
lhumerus -25.2363 6.13251 85.4313
lradius 14.373
lwrist 0.524236
lhand -26.2916 -5.65527
lfingers 7.12502
lthumb 0.264109 24.3243
rfemur -23.5402 -1.64053 20.648
rtibia 33.2625
rfoot -15.1616 0.204571
rtoes 12.1415
lfemur -23.2898 7.45659 -18.5714
ltibia 32.1932
lfoot -12.2825 5.64249
ltoes -5.15636
450
root 0.894015 17.3857 2.0657 6.88039 -2.89739 -2.07277
lowerback 3.15114 0.402679 -0.393422
upperback 4.52455 0.49482 1.61685
thorax 2.86683 0.204808 1.88031
lowerneck -12.424 -0.326967 -1.31644
upperneck 30.7064 -0.299707 0.468704
head 12.1586 -0.231187 0.363173
rclavicle -2.5842e-015 -1.11319e-014
rhumerus -36.8569 -32.9331 -62.4479
rradius 17.4548
rwrist 50.6397
rhand -18.7327 -26.7485
rfingers 7.12502
rthumb 7.56315 -56.5933
lclavicle -2.5842e-015 -1.11319e-014
lhumerus -25.1537 5.66295 85.5837
lradius 14.6803
lwrist 1.44839
lhand -26.3913 -5.75855
lfingers 7.12502
lthumb 0.167838 24.2211
rfemur -23.4305 -1.65368 20.6801
rtibia 33.0037
rfoot -15.103 0.187778
rtoes 12.2104
lfemur -23.203 7.40665 -18.5412
ltibia 31.9563
lfoot -12.2187 5.63165
ltoes -5.13122
451
root 0.888223 17.3961 2.08276 6.9707 -2.84045 -2.08368
lowerback 3.11048 0.401297 -0.360133
upperback 4.50768 0.493734 1.60182
thorax 2.87251 0.205649 1.84634
lowerneck -12.4094 -0.332247 -1.32553
upperneck 30.6762 -0.313431 0.496774
head 12.1435 -0.23456 0.373398
rclavicle 6.4605e-016 1.07344e-014
rhumerus -36.9805 -32.6395 -62.6502
rradius 17.4538
rwrist 50.3598
rhand -18.7008 -26.7184
rfingers 7.12502
rthumb 7.59393 -56.5621
lclavicle 6.4605e-016 1.07344e-014
lhumerus -25.0684 5.22185 85.7143
lradius 14.9688
lwrist 2.18638
lhand -26.4807 -5.8931
lfingers 7.12502
lthumb 0.0814565 24.0866
rfemur -23.3216 -1.66548 20.7106
rtibia 32.7492
rfoot -15.0452 0.16413
rtoes 12.268
lfemur -23.121 7.35169 -18.5121
ltibia 31.7285
lfoot -12.1577 5.62186
ltoes -5.09813
452
root 0.88228 17.4059 2.09968 7.05797 -2.77723 -2.09832
lowerback 3.06775 0.396631 -0.326541
upperback 4.48949 0.488176 1.59094
thorax 2.87812 0.204196 1.81651
lowerneck -12.3994 -0.336943 -1.34117
upperneck 30.6502 -0.324751 0.525443
head 12.1312 -0.237563 0.385323
rclavicle -9.93923e-016 7.35503e-015
rhumerus -37.0417 -32.3047 -62.9172
rradius 17.4575
rwrist 50.1227
rhand -18.6448 -26.6747
rfingers 7.12502
rthumb 7.64801 -56.5164
lclavicle -9.93923e-016 7.35503e-015
lhumerus -24.9791 4.8244 85.8217
lradius 15.2403
lwrist 2.74224
lhand -26.5518 -6.02087
lfingers 7.12502
lthumb 0.012767 23.9589
rfemur -23.2123 -1.66989 20.7451
rtibia 32.5006
rfoot -14.9877 0.1284
rtoes 12.3187
lfemur -23.0433 7.29247 -18.4775
ltibia 31.5118
lfoot -12.1 5.6131
ltoes -5.06126
